<svg version="1.1" id="Layer_1" xmlns="http://www.w3.org/2000/svg" xmlns:xlink="http://www.w3.org/1999/xlink" x="0px" y="0px"
	 width="100%" viewBox="0 0 74 76" enable-background="new 0 0 74 76" xml:space="preserve">
<path fill="#212930" opacity="1.000000" stroke="none" 
	d="
M1.000000,72.000000 
	C1.000000,54.979103 1.000000,37.958210 1.310908,20.469053 
	C2.243612,20.000254 2.865408,19.999716 3.513810,20.467049 
	C3.738089,31.600185 3.935761,42.265453 3.887856,53.171387 
	C2.783439,57.123310 4.772055,59.182373 7.995575,59.911194 
	C11.036194,60.598656 14.255845,61.110706 17.335190,60.879639 
	C23.382956,60.425835 27.914371,61.422527 30.010502,68.168846 
	C31.078434,71.605942 33.713585,74.234055 38.269764,74.078224 
	C42.586311,73.930573 44.512169,71.368904 45.919971,68.051865 
	C47.854649,63.493416 50.952076,61.707829 56.036457,61.818901 
	C60.367443,61.913513 64.913124,61.133289 69.009155,59.715458 
	C71.517868,58.847073 74.326683,56.383812 71.689117,52.302299 
	C72.030830,50.054546 72.435699,48.252483 72.451546,46.447006 
	C72.528946,37.631649 72.502510,28.815376 72.823685,20.003265 
	C73.756378,20.004736 74.378189,20.002367 75.000000,20.000000 
	C75.000000,37.020893 75.000000,54.041790 74.654984,71.549622 
	C72.873322,73.691048 71.436661,75.345528 70.000000,77.000000 
	C60.645771,77.000000 51.291542,77.000000 41.230721,76.744125 
	C39.016083,76.658829 37.508041,76.829414 36.000000,77.000000 
	C26.645771,77.000000 17.291542,77.000000 7.431006,76.662994 
	C4.949799,74.883995 2.974899,73.442001 1.000000,72.000000 
z"/>
<path fill="#242D34" opacity="1.000000" stroke="none" 
	d="
M75.000000,19.535349 
	C74.378189,20.002367 73.756378,20.004736 72.655945,19.671675 
	C70.636009,15.204399 67.383057,13.486114 63.257038,13.468293 
	C46.494068,13.395890 29.730560,13.423972 12.967321,13.453723 
	C8.351567,13.461915 5.016882,15.456336 3.487203,19.999176 
	C2.865408,19.999716 2.243612,20.000254 1.310908,20.000397 
	C1.000000,15.643101 1.000000,11.286201 1.346503,6.455034 
	C3.128671,4.320511 4.564335,2.660256 6.000000,1.000000 
	C26.687561,1.000000 47.375122,1.000000 68.560173,1.339309 
	C71.038445,3.119078 73.019218,4.559540 75.000000,6.000000 
	C75.000000,10.356899 75.000000,14.713799 75.000000,19.535349 
z"/>
<path fill="#000000" opacity="1.000000" stroke="none" 
	d="
M75.000000,5.500038 
	C73.019218,4.559540 71.038445,3.119078 69.028831,1.339309 
	C70.904778,1.000000 72.809555,1.000000 75.000000,1.000000 
	C75.000000,2.328534 75.000000,3.664305 75.000000,5.500038 
z"/>
<path fill="#000000" opacity="1.000000" stroke="none" 
	d="
M1.000000,72.499962 
	C2.974899,73.442001 4.949799,74.883995 6.962349,76.662994 
	C5.095223,77.000000 3.190447,77.000000 1.000000,77.000000 
	C1.000000,75.671463 1.000000,74.335693 1.000000,72.499962 
z"/>
<path fill="#000000" opacity="1.000000" stroke="none" 
	d="
M5.500038,1.000000 
	C4.564335,2.660256 3.128671,4.320511 1.346503,5.990384 
	C1.000000,4.421039 1.000000,2.842079 1.000000,1.000000 
	C2.329434,1.000000 3.664755,1.000000 5.500038,1.000000 
z"/>
<path fill="#000000" opacity="1.000000" stroke="none" 
	d="
M70.499962,77.000000 
	C71.436661,75.345528 72.873322,73.691048 74.654984,72.018280 
	C75.000000,73.578964 75.000000,75.157921 75.000000,77.000000 
	C73.670563,77.000000 72.335243,77.000000 70.499962,77.000000 
z"/>
<path fill="#4D4D4D" opacity="1.000000" stroke="none" 
	d="
M36.416664,77.000000 
	C37.508041,76.829414 39.016083,76.658829 40.762062,76.744125 
	C39.611111,77.000000 38.222221,77.000000 36.416664,77.000000 
z"/>
<path fill="#CDD3E9" opacity="1.000000" stroke="none" 
	d="
M3.513810,20.467049 
	C5.016882,15.456336 8.351567,13.461915 12.967321,13.453723 
	C29.730560,13.423972 46.494068,13.395890 63.257038,13.468293 
	C67.383057,13.486114 70.636009,15.204399 72.345062,19.667835 
	C72.502510,28.815376 72.528946,37.631649 72.451546,46.447006 
	C72.435699,48.252483 72.030830,50.054546 71.439438,52.531113 
	C69.332405,54.375401 67.684113,56.344444 65.831657,56.560143 
	C61.293896,57.088516 56.661903,56.807644 52.018745,56.490921 
	C51.651939,54.727150 51.334225,53.324879 51.480042,51.945816 
	C55.595901,51.966232 59.248257,51.970066 62.900562,51.958595 
	C65.951294,51.949013 67.476997,50.457020 67.425102,47.355400 
	C67.311462,40.562572 67.233276,33.769146 67.267570,26.581261 
	C67.696335,18.855534 67.354973,18.470762 60.216751,18.464895 
	C45.464569,18.452772 30.712366,18.454718 15.960178,18.463621 
	C8.474889,18.468138 7.917328,19.148867 8.727877,27.379196 
	C8.588841,34.088654 8.696314,40.391651 8.526289,46.687153 
	C8.444706,49.707901 9.592533,50.890709 12.558266,50.830013 
	C16.699217,50.745266 20.844372,50.865833 24.978733,51.239281 
	C25.267340,52.890789 25.564943,54.201553 25.409378,55.611607 
	C18.631947,55.381584 12.307681,55.052273 5.896511,54.468544 
	C5.250881,53.786327 4.692157,53.358524 4.133432,52.930717 
	C3.935761,42.265453 3.738089,31.600185 3.513810,20.467049 
z"/>
<path fill="#0E1113" opacity="1.000000" stroke="none" 
	d="
M3.887856,53.171387 
	C4.692157,53.358524 5.250881,53.786327 5.956535,54.852028 
	C8.590960,56.659470 10.971074,58.303242 13.589159,58.896065 
	C18.466061,60.000359 23.481462,60.493004 28.727478,61.375595 
	C30.007681,63.189705 31.188923,64.787567 31.948671,66.565529 
	C33.190872,69.472504 35.348961,69.993713 38.255398,70.114250 
	C41.329369,70.241737 42.722164,68.812683 43.798244,66.330681 
	C44.712521,64.221886 45.527416,61.937099 46.977657,60.233654 
	C48.246990,58.742710 50.339157,57.952293 52.067829,56.852413 
	C56.661903,56.807644 61.293896,57.088516 65.831657,56.560143 
	C67.684113,56.344444 69.332405,54.375401 71.323265,52.975235 
	C74.326683,56.383812 71.517868,58.847073 69.009155,59.715458 
	C64.913124,61.133289 60.367443,61.913513 56.036457,61.818901 
	C50.952076,61.707829 47.854649,63.493416 45.919971,68.051865 
	C44.512169,71.368904 42.586311,73.930573 38.269764,74.078224 
	C33.713585,74.234055 31.078434,71.605942 30.010502,68.168846 
	C27.914371,61.422527 23.382956,60.425835 17.335190,60.879639 
	C14.255845,61.110706 11.036194,60.598656 7.995575,59.911194 
	C4.772055,59.182373 2.783439,57.123310 3.887856,53.171387 
z"/>
<path fill="#242D34" opacity="1.000000" stroke="none" 
	d="
M24.987728,50.898544 
	C20.844372,50.865833 16.699217,50.745266 12.558266,50.830013 
	C9.592533,50.890709 8.444706,49.707901 8.526289,46.687153 
	C8.696314,40.391651 8.588841,34.088654 9.018415,27.251341 
	C11.995654,25.811131 14.535680,24.177763 17.106461,24.127836 
	C30.579245,23.866177 44.064262,23.819609 57.534451,24.141245 
	C60.757225,24.218195 63.939636,25.985886 67.140610,26.975964 
	C67.233276,33.769146 67.311462,40.562572 67.425102,47.355400 
	C67.476997,50.457020 65.951294,51.949013 62.900562,51.958595 
	C59.248257,51.970066 55.595901,51.966232 51.569084,51.645885 
	C47.498802,48.987179 44.845158,49.429539 43.069279,52.767059 
	C41.489132,55.736721 40.005001,58.757473 37.979248,62.736240 
	C36.235672,59.209412 34.834213,56.821247 33.843925,54.273277 
	C32.086494,49.751476 29.174765,48.782505 24.987728,50.898544 
M51.047596,37.177788 
	C50.669464,35.035545 50.707741,32.659142 49.701656,30.870024 
	C49.316566,30.185228 46.192875,30.254452 44.930504,31.007820 
	C42.041664,32.731853 42.855637,35.411606 43.669762,38.374409 
	C44.335648,39.797615 44.653458,41.857681 45.765118,42.465260 
	C46.881119,43.075214 49.122173,42.692577 50.233208,41.877110 
	C50.994495,41.318352 50.665668,39.274368 51.047596,37.177788 
M24.670942,38.372871 
	C25.335194,39.796391 25.650932,41.857208 26.761520,42.464546 
	C27.876541,43.074303 30.117458,42.690250 31.228239,41.874619 
	C31.990238,41.315090 31.663643,39.273048 32.048237,37.177513 
	C31.669971,35.035454 31.708363,32.658932 30.701900,30.870371 
	C30.316332,30.185184 27.192867,30.254557 25.930223,31.007877 
	C23.040249,32.732105 23.854553,35.411083 24.670942,38.372871 
z"/>
<path fill="#1D2024" opacity="1.000000" stroke="none" 
	d="
M67.267570,26.581263 
	C63.939636,25.985886 60.757225,24.218195 57.534451,24.141245 
	C44.064262,23.819609 30.579245,23.866177 17.106461,24.127836 
	C14.535680,24.177763 11.995654,25.811131 9.150900,26.841801 
	C7.917328,19.148867 8.474889,18.468138 15.960178,18.463621 
	C30.712366,18.454718 45.464569,18.452772 60.216751,18.464895 
	C67.354973,18.470762 67.696335,18.855534 67.267570,26.581263 
z"/>
<path fill="#5A7A7A" opacity="1.000000" stroke="none" 
	d="
M24.978733,51.239281 
	C29.174765,48.782505 32.086494,49.751476 33.843925,54.273277 
	C34.834213,56.821247 36.235672,59.209412 37.979248,62.736240 
	C40.005001,58.757473 41.489132,55.736721 43.069279,52.767059 
	C44.845158,49.429539 47.498802,48.987179 51.105556,51.622673 
	C51.334225,53.324879 51.651939,54.727150 52.018745,56.490921 
	C50.339157,57.952293 48.246990,58.742710 46.977657,60.233654 
	C45.527416,61.937099 44.712521,64.221886 43.798244,66.330681 
	C42.722164,68.812683 41.329369,70.241737 38.255398,70.114250 
	C35.348961,69.993713 33.190872,69.472504 31.948671,66.565529 
	C31.188923,64.787567 30.007681,63.189705 28.803959,60.951347 
	C27.682304,58.765263 26.772427,57.138790 25.862547,55.512321 
	C25.564943,54.201553 25.267340,52.890789 24.978733,51.239281 
z"/>
<path fill="#090B0D" opacity="1.000000" stroke="none" 
	d="
M25.409378,55.611607 
	C26.772427,57.138790 27.682304,58.765263 28.515701,60.815979 
	C23.481462,60.493004 18.466061,60.000359 13.589159,58.896065 
	C10.971074,58.303242 8.590960,56.659470 6.043440,55.106445 
	C12.307681,55.052273 18.631947,55.381584 25.409378,55.611607 
z"/>
<path fill="#CFD4EB" opacity="1.000000" stroke="none" 
	d="
M25.181772,37.897346 
	C23.854553,35.411083 23.040249,32.732105 25.930223,31.007877 
	C27.192867,30.254557 30.316332,30.185184 30.701900,30.870371 
	C31.708363,32.658932 31.669971,35.035454 31.572517,37.576057 
	C29.125124,37.948853 27.153448,37.923100 25.181772,37.897346 
z"/>
<path fill="#CFD4EB" opacity="1.000000" stroke="none" 
	d="
M44.179688,37.898548 
	C42.855637,35.411606 42.041664,32.731853 44.930504,31.007820 
	C46.192875,30.254452 49.316566,30.185228 49.701656,30.870024 
	C50.707741,32.659142 50.669464,35.035545 50.572430,37.576496 
	C48.124737,37.949650 46.152214,37.924099 44.179688,37.898548 
z"/>
<path fill="#0D1013" opacity="1.000000" stroke="none" 
	d="
M24.926357,38.135109 
	C27.153448,37.923100 29.125124,37.948853 31.460228,37.934151 
	C31.663643,39.273048 31.990238,41.315090 31.228239,41.874619 
	C30.117458,42.690250 27.876541,43.074303 26.761520,42.464546 
	C25.650932,41.857208 25.335194,39.796391 24.926357,38.135109 
z"/>
<path fill="#0D1013" opacity="1.000000" stroke="none" 
	d="
M43.924725,38.136478 
	C46.152214,37.924099 48.124737,37.949650 50.460709,37.934765 
	C50.665668,39.274368 50.994495,41.318352 50.233208,41.877110 
	C49.122173,42.692577 46.881119,43.075214 45.765118,42.465260 
	C44.653458,41.857681 44.335648,39.797615 43.924725,38.136478 
z"/>
</svg>